<svg width="193" height="142" viewBox="0 0 193 142" fill="none" xmlns="http://www.w3.org/2000/svg">
<path d="M37.9861 44.1037C37.9861 44.1037 49.9596 34.9309 63.1302 32.1392C76.3007 29.3476 74.3053 30.9431 74.3053 30.9431C74.3053 30.9431 72.3099 34.9309 76.3007 37.7236C80.2916 40.5152 58.341 43.3069 57.9413 52.4797C57.5426 61.6515 37.5874 46.497 37.9861 44.1037Z" fill="#DD000B"/>
<path d="M30.5941 46.8092C30.5941 46.8092 25.8049 50.3987 23.4108 57.5765C21.0167 64.7544 27.0029 66.5496 41.3705 76.1208C55.7382 85.692 67.7107 107.227 67.7107 107.227L88.0646 79.7102C88.0646 79.7102 58.7308 49.8006 53.3431 44.4169C47.9544 39.0323 35.9818 41.4246 30.5941 46.8092Z" fill="#FD2227"/>
<path d="M21.5624 44.7674C21.5624 44.7674 8.94135 47.6432 7.2349 42.3672C5.52748 37.0912 11.0083 33.3501 6.39442 29.9555C1.77958 26.5608 -4.42317 24.6207 4.65859 19.2889C13.7413 13.9562 5.1141 6.11463 12.0515 3.96019C18.988 1.80477 21.2979 6.03045 27.9434 4.56903C34.5899 3.10859 41.5215 -4.10062 47.4156 3.25151C53.3108 10.6036 54.8644 18.5871 50.9255 20.2012C46.9875 21.8163 52.8768 24.1137 54.738 26.6832C56.5973 29.2526 56.6992 40.7042 38.3437 38.5771C19.9872 36.4481 29.1708 42.5669 21.5624 44.7674Z" fill="#202954"/>
<path d="M29.9456 39.4346C29.9456 39.4346 31.9127 41.7104 30.6598 44.8995C29.4049 48.0915 25.8519 50.891 31.6002 52.4787C38.9187 54.5 42.789 47.0393 42.789 47.0393C42.789 47.0393 37.7951 45.6111 38.2702 41.5724C38.7453 37.5317 43.2641 33.0173 38.7453 35.1551C34.2264 37.2948 28.7564 36.8201 29.9456 39.4346Z" fill="#F7B68B"/>
<path d="M14.9629 16.3817C14.9629 16.3817 11.1582 31.1154 21.3851 36.5813C31.611 42.0491 30.8969 42.5229 35.8918 40.3841C40.8857 38.2443 43.4287 30.0797 42.313 23.035C41.2511 16.323 38.2702 18.5205 30.4227 18.0438C22.5743 17.5691 21.3851 17.3332 21.3851 17.3332C21.3851 17.3332 23.0494 19.7079 28.2814 20.1846C33.5133 20.6583 21.6221 26.1252 14.9629 16.3817Z" fill="#F7B68B"/>
<path d="M31.6129 30.8188C33.1166 29.7234 34.6281 28.6849 36.1475 27.6992C37.946 30.6602 37.08 34.6539 34.0639 36.8534C31.1104 39.0068 27.147 38.677 24.8459 36.2083C26.9756 34.3632 29.2296 32.5572 31.6129 30.8188Z" fill="white"/>
<path d="M193 43.7024H60.21V124.574H193V43.7024Z" fill="#C5E1F9"/>
<path d="M193 36.639H60.21V43.9471H193V36.639Z" fill="#9AC7F7"/>
<path d="M65.5723 39.9563C65.5723 40.7629 64.9159 41.4187 64.1097 41.4187C63.3006 41.4187 62.6472 40.7629 62.6472 39.9563C62.6472 39.1488 63.3006 38.4959 64.1097 38.4959C64.9159 38.4959 65.5723 39.1488 65.5723 39.9563Z" fill="#074FDF"/>
<path d="M70.2037 39.9563C70.2037 40.7629 69.5494 41.4187 68.7412 41.4187C67.9331 41.4187 67.2777 40.7629 67.2777 39.9563C67.2777 39.1488 67.9331 38.4959 68.7412 38.4959C69.5494 38.4959 70.2037 39.1488 70.2037 39.9563Z" fill="#69AEEB"/>
<path d="M74.8362 39.9563C74.8362 40.7629 74.1818 41.4187 73.3727 41.4187C72.5645 41.4187 71.9102 40.7629 71.9102 39.9563C71.9102 39.1488 72.5645 38.4959 73.3727 38.4959C74.1818 38.4959 74.8362 39.1488 74.8362 39.9563Z" fill="#ACD4F8"/>
<path d="M22.8113 61.166C22.8113 61.166 28.7975 85.0939 35.9818 89.8785C43.1652 94.6641 38.3759 80.9054 41.3696 81.5035C44.3632 82.1016 37.1789 66.5487 33.5877 63.5573C29.9956 60.5669 27.002 57.5756 22.8113 61.166Z" fill="#DD000B"/>
<path d="M44.089 94.2794C44.089 94.2794 56.7158 71.2324 57.6132 68.2489C58.5105 65.2654 62.4024 60.1715 55.4649 64.0262C48.5275 67.8809 38.8756 81.574 35.836 85.459C32.7943 89.3431 41.6616 95.5842 44.089 94.2794Z" fill="#F7B68B"/>
<path d="M79.6117 36.7888C79.6117 36.7888 93.1516 36.3346 103.483 36.9189C113.814 37.5033 108.074 35.5329 106.264 34.0911C104.456 32.6492 102.804 32.0276 102.804 32.0276C102.804 32.0276 82.3174 29.5502 77.0815 29.7822C71.8456 30.0142 70.866 31.8035 71.0834 32.7128C71.6448 35.064 71.6448 36.6586 79.6117 36.7888Z" fill="#F7B68B"/>
<path d="M120.603 50.2861C120.605 49.8378 120.979 49.4746 121.437 49.4766L173.345 49.6802C173.803 49.6821 174.175 50.0463 174.172 50.4956L173.853 130.261C173.85 130.71 173.475 131.07 173.018 131.068L121.11 130.866C120.652 130.864 120.28 130.499 120.281 130.049L120.603 50.2861Z" fill="#0450CF"/>
<path d="M118.574 49.735C118.577 49.2808 119.027 48.9137 119.583 48.9157L123.942 48.9343C124.496 48.9363 124.946 49.3053 124.946 49.7614L124.62 130.613C124.618 131.066 124.166 131.435 123.61 131.431L119.252 131.414C118.695 131.412 118.248 131.041 118.25 130.587L118.574 49.735Z" fill="#0450CF"/>
<path d="M119.491 51.3129C119.493 50.9742 119.123 50.5337 118.664 50.3301L77.1295 34.9583C76.671 34.7557 74.4513 34.9544 74.4483 35.4135L74.0251 140.611C74.0222 141.07 76.242 141.301 76.7014 141.118L118.343 130.076C118.802 129.894 119.176 129.47 119.176 129.129L119.491 51.3129Z" fill="#0450CF"/>
<path d="M121.338 51.3197C121.338 50.9811 120.969 50.5416 120.511 50.338L77.1295 34.9583C76.671 34.7557 76.2988 34.9622 76.2959 35.4213L75.8717 140.62C75.8707 141.077 76.242 141.301 76.7024 141.118L120.189 130.083C120.65 129.9 121.023 129.477 121.025 129.137L121.338 51.3197Z" fill="#0561FC"/>
<path d="M77.9523 36.8113L122.996 52.7469L122.689 128.583L77.5428 138.963L77.9523 36.8113Z" fill="#AEC4DB"/>
<path d="M82.7552 36.8308L123.003 50.799L122.688 129.139L82.3438 138.981L82.7552 36.8308Z" fill="#BCD0E2"/>
<path d="M87.5572 36.8504L123.003 50.799L122.688 129.139L87.1458 139.001L87.5572 36.8504Z" fill="#CEE0F0"/>
<path d="M91.4285 38.4861L121.799 51.77L121.5 126.038L91.0386 135.326L91.4285 38.4861Z" fill="#AEC4DB"/>
<path d="M92.5433 36.87L123.003 50.799L122.688 129.139L92.1328 139.022L92.5433 36.87Z" fill="#E4EEF3"/>
<path d="M122.952 50.6811L122.646 129.118L171.647 129.309L171.953 50.8721L122.952 50.6811Z" fill="white"/>
<path d="M106.011 34.9916C106.011 34.9916 111.625 43.8776 111.728 47.0931C111.83 50.3066 111.149 49.4159 111.149 49.4159L107.804 43.4997C107.804 43.4997 103.41 41.4432 102.363 37.3036C101.317 33.1631 106.011 34.9916 106.011 34.9916Z" fill="#F7B68B"/>
<path d="M102.803 32.0276L111.926 35.6504L119.493 40.9303L114.576 47.7391C114.576 47.7391 114.191 46.6222 115.329 44.1076C116.469 41.5929 116.469 41.5929 116.469 41.5929L112.645 45.2147L111.921 43.6505L111.213 43.9568L110.603 42.5405C110.603 42.5405 110.927 41.1172 111.96 39.3886C112.992 37.6599 109.663 37.6149 109.663 37.6149C109.663 37.6149 107.659 39.6127 104.398 39.043C101.139 38.4724 102.803 32.0276 102.803 32.0276Z" fill="#F7B68B"/>
<path d="M55.4287 63.7119C55.4287 63.7119 57.8933 62.1517 61.5913 61.4136C65.2883 60.6746 68.7393 65.1078 70.7112 65.3545C72.6832 65.6011 80.0781 69.542 80.8176 70.0343C81.5572 70.5267 80.8176 71.2657 77.8603 70.281C74.9029 69.2953 70.7112 68.3106 70.7112 68.3106L75.3947 72.0047L77.6134 76.4379C77.6134 76.4379 76.2165 77.0948 75.0665 75.6989C74.0154 74.4235 73.4237 73.2361 73.4237 73.2361L68.9872 70.5267L71.4518 75.4532L74.4092 80.3788C74.4092 80.3788 72.1091 81.7746 70.2195 77.4236C69.1625 74.9902 65.782 73.2361 65.782 73.2361L67.2602 77.177L68.4925 79.9686C68.4925 79.9686 67.4091 81.5466 66.2747 79.6398C64.4674 76.6014 63.0705 74.3853 63.0705 74.3853C63.0705 74.3853 58.1412 72.0047 56.4151 68.802" fill="#F7B68B"/>
<path d="M151.616 62.783H130.685V64.0379H151.616V62.783Z" fill="#C5E1F9"/>
<path d="M158.315 65.7118H130.685V66.9666H158.315V65.7118Z" fill="#C5E1F9"/>
<path d="M161.246 71.1493H130.685V72.4041H161.246V71.1493Z" fill="#C5E1F9"/>
<path d="M161.246 74.0779H130.685V75.3328H161.246V74.0779Z" fill="#C5E1F9"/>
<path d="M161.246 77.0057H130.685V77.8426H161.246V77.0057Z" fill="#C5E1F9"/>
<path d="M161.246 79.5155H130.685V80.7703H161.246V79.5155Z" fill="#C5E1F9"/>
<path d="M153.71 85.3719H130.685V86.2088H153.71V85.3719Z" fill="#C5E1F9"/>
<path d="M161.246 90.8104H130.685V92.0652H161.246V90.8104Z" fill="#C5E1F9"/>
<path d="M161.246 93.7381H130.685V94.575H161.246V93.7381Z" fill="#C5E1F9"/>
<path d="M161.246 96.2479H130.685V97.5028H161.246V96.2479Z" fill="#C5E1F9"/>
<path d="M161.246 99.1766H130.685V100.431H161.246V99.1766Z" fill="#C5E1F9"/>
<path d="M161.246 102.104H130.685V102.941H161.246V102.104Z" fill="#C5E1F9"/>
<path d="M161.246 104.614H130.685V105.869H161.246V104.614Z" fill="#C5E1F9"/>
<path d="M161.246 107.543H130.685V108.798H161.246V107.543Z" fill="#C5E1F9"/>
<path d="M161.246 110.471H130.685V111.307H161.246V110.471Z" fill="#C5E1F9"/>
<path d="M161.246 112.98H130.685V114.235H161.246V112.98Z" fill="#C5E1F9"/>
<path d="M161.246 115.909H130.685V117.164H161.246V115.909Z" fill="#C5E1F9"/>
<path d="M161.246 118.837H130.685V119.674H161.246V118.837Z" fill="#C5E1F9"/>
<path d="M119.383 64.0379L98.033 56.1533V54.5725L119.383 62.783V64.0379Z" fill="#C5E1F9"/>
<path d="M119.383 66.9666L98.033 59.8445V58.2627L119.383 65.7117V66.9666Z" fill="#C5E1F9"/>
<path d="M119.383 72.4041L98.033 66.6974V65.1156L119.383 71.1492V72.4041Z" fill="#C5E1F9"/>
<path d="M119.383 75.3328L98.033 70.3877V68.8059L119.383 74.078V75.3328Z" fill="#C5E1F9"/>
<path d="M119.383 77.8426L98.033 73.5513V72.4971L119.383 77.0057V77.8426Z" fill="#C5E1F9"/>
<path d="M119.383 80.7703L98.033 77.2416V75.6598L119.383 79.5154V80.7703Z" fill="#C5E1F9"/>
<path d="M119.383 86.2088L98.033 84.0945V83.0403L119.383 85.3719V86.2088Z" fill="#C5E1F9"/>
<path d="M119.383 89.1366L98.033 87.7848V86.2039L119.383 87.8817V89.1366Z" fill="#C5E1F9"/>
<path d="M119.383 83.699L98.033 80.9319V79.35L119.383 82.4442V83.699Z" fill="#C5E1F9"/>
<path d="M119.383 69.4764L98.033 63.0072V61.953L119.383 68.6395V69.4764Z" fill="#C5E1F9"/>
<path d="M119.383 92.0652L98.033 91.476V89.8942L119.383 90.8104V92.0652Z" fill="#C5E1F9"/>
<path d="M119.383 94.575L98.033 94.6387V93.5844L119.383 93.7381V94.575Z" fill="#C5E1F9"/>
<path d="M115.196 97.6652L98.033 98.3299V96.7481L115.196 96.3457V97.6652Z" fill="#C5E1F9"/>
<path d="M119.383 102.941L98.033 105.183V104.129L119.383 102.104V102.941Z" fill="#C5E1F9"/>
<path d="M119.383 105.869L98.033 108.873V107.292L119.383 104.614V105.869Z" fill="#C5E1F9"/>
<path d="M119.383 108.798L98.033 112.563V110.982L119.383 107.543V108.798Z" fill="#C5E1F9"/>
<path d="M119.383 111.307L98.033 115.727V114.672L119.383 110.471V111.307Z" fill="#C5E1F9"/>
<path d="M119.383 114.235L98.033 119.417V117.835L119.383 112.98V114.235Z" fill="#C5E1F9"/>
<path d="M119.383 117.164L98.033 123.107V121.526L119.383 115.909V117.164Z" fill="#C5E1F9"/>
<path d="M113.103 121.614L98.033 126.27V125.216L113.103 120.713V121.614Z" fill="#C5E1F9"/>
</svg>
