<svg width="309" height="318" viewBox="0 0 309 318" fill="none" xmlns="http://www.w3.org/2000/svg">
<rect width="309" height="318" rx="14" fill="#978EF3"/>
<mask id="mask0_378_2" style="mask-type:alpha" maskUnits="userSpaceOnUse" x="0" y="0" width="309" height="318">
<rect width="309" height="318" rx="14" fill="#978EF3"/>
</mask>
<g mask="url(#mask0_378_2)">
<path d="M114 292.5C114 330.332 83.3315 361 45.5 361C7.6685 361 -23 330.332 -23 292.5C-23 254.668 7.6685 224 45.5 224C83.3315 224 114 254.668 114 292.5ZM-8.28241 292.5C-8.28241 322.203 15.7968 346.282 45.5 346.282C75.2032 346.282 99.2824 322.203 99.2824 292.5C99.2824 262.797 75.2032 238.718 45.5 238.718C15.7968 238.718 -8.28241 262.797 -8.28241 292.5Z" fill="white"/>
<path d="M292 0.5C292 29.4949 268.495 53 239.5 53C210.505 53 187 29.4949 187 0.5C187 -28.4949 210.505 -52 239.5 -52C268.495 -52 292 -28.4949 292 0.5ZM198.28 0.5C198.28 23.2652 216.735 41.7201 239.5 41.7201C262.265 41.7201 280.72 23.2652 280.72 0.5C280.72 -22.2652 262.265 -40.7201 239.5 -40.7201C216.735 -40.7201 198.28 -22.2652 198.28 0.5Z" fill="#7367F0"/>
<path d="M113 69.5C113 88.5538 97.5538 104 78.5 104C59.4462 104 44 88.5538 44 69.5C44 50.4462 59.4462 35 78.5 35C97.5538 35 113 50.4462 113 69.5ZM51.4125 69.5C51.4125 84.46 63.54 96.5875 78.5 96.5875C93.46 96.5875 105.587 84.46 105.587 69.5C105.587 54.54 93.46 42.4125 78.5 42.4125C63.54 42.4125 51.4125 54.54 51.4125 69.5Z" fill="#7367F0"/>
<path d="M285 135.5C285 168.913 257.913 196 224.5 196C191.087 196 164 168.913 164 135.5C164 102.087 191.087 75 224.5 75C257.913 75 285 102.087 285 135.5ZM176.999 135.5C176.999 161.734 198.266 183.001 224.5 183.001C250.734 183.001 272.001 161.734 272.001 135.5C272.001 109.266 250.734 87.9987 224.5 87.9987C198.266 87.9987 176.999 109.266 176.999 135.5Z" fill="#F8F8F8"/>
<path d="M298 277.5C298 296.554 282.554 312 263.5 312C244.446 312 229 296.554 229 277.5C229 258.446 244.446 243 263.5 243C282.554 243 298 258.446 298 277.5ZM236.413 277.5C236.413 292.46 248.54 304.587 263.5 304.587C278.46 304.587 290.587 292.46 290.587 277.5C290.587 262.54 278.46 250.413 263.5 250.413C248.54 250.413 236.413 262.54 236.413 277.5Z" fill="#7367F0"/>
</g>
<path d="M287.203 216.229H284.957C284.218 216.229 283.615 215.523 283.615 214.652V197.865C283.615 197.001 284.218 196.29 284.957 196.29H287.203V193.144H144.564C142.334 193.144 140.527 195.26 140.527 197.865V214.652C140.527 217.258 142.334 219.376 144.564 219.376H287.203V216.229Z" fill="#136FB7"/>
<path d="M287.203 216.229H284.957C284.218 216.229 283.615 215.523 283.615 214.652V197.865C283.615 197.001 284.218 196.29 284.957 196.29H287.203V193.144H213.191V219.374H287.203V216.229Z" fill="#06497D"/>
<path d="M283.615 214.652V197.865C283.615 197.001 284.218 196.29 284.957 196.29H144.564C143.825 196.29 143.22 197.001 143.22 197.865V214.652C143.22 215.522 143.825 216.229 144.564 216.229H284.957C284.218 216.229 283.615 215.522 283.615 214.652Z" fill="white"/>
<path d="M283.615 214.652V197.865C283.615 197.001 284.218 196.29 284.957 196.29H210.503C209.759 196.29 209.157 197.001 209.157 197.865V214.652C209.157 215.522 209.759 216.229 210.503 216.229H284.957C284.218 216.229 283.615 215.522 283.615 214.652Z" fill="#C5E1F9"/>
<path d="M145.664 190.418H147.581C148.21 190.418 148.725 189.861 148.725 189.178V175.938C148.725 175.256 148.21 174.693 147.581 174.693H145.664V172.215H267.28C269.18 172.215 270.719 173.885 270.719 175.938V189.178C270.719 191.234 269.18 192.905 267.28 192.905H145.664V190.418Z" fill="#69AEEB"/>
<path d="M145.664 190.418H147.581C148.21 190.418 148.725 189.861 148.725 189.178V175.938C148.725 175.256 148.21 174.693 147.581 174.693H145.664V172.215H208.765V192.905H145.664V190.418Z" fill="#9AC7F7"/>
<path d="M148.723 189.178V175.938C148.723 175.256 148.208 174.693 147.579 174.693H267.278C267.911 174.693 268.425 175.256 268.425 175.938V189.178C268.425 189.861 267.911 190.418 267.278 190.418H147.579C148.208 190.418 148.723 189.861 148.723 189.178Z" fill="#C5E1F9"/>
<path d="M148.723 189.178V175.938C148.723 175.256 148.208 174.693 147.579 174.693H211.06C211.695 174.693 212.207 175.256 212.207 175.938V189.178C212.207 189.861 211.695 190.418 211.06 190.418H147.579C148.208 190.418 148.723 189.861 148.723 189.178Z" fill="#E4EEF3"/>
<path d="M277.863 158.952C277.236 162.249 276.898 153.358 276.898 156.991C276.898 161.083 277.329 165.01 278.118 168.661H182.71V158.952H277.863Z" fill="#C5E1F9"/>
<path opacity="0.2" d="M277.863 158.952C277.72 159.713 277.591 160.484 277.476 161.262H191.417V158.952H277.863Z" fill="#2E95D1"/>
<path d="M178.896 155.491H278.894C279.496 155.491 279.982 155.935 279.982 156.478V158.951H234.069V168.659H279.982V171.136C279.982 171.68 279.496 172.124 278.894 172.124H178.896C178.296 172.124 177.807 171.68 177.807 171.136V156.479C177.807 155.935 178.296 155.491 178.896 155.491Z" fill="#FFAA00"/>
<path d="M154.213 155.491H231.525C230.926 155.491 230.437 155.935 230.437 156.478V171.134C230.437 171.678 230.926 172.123 231.525 172.123H154.213C153.615 172.123 153.124 171.678 153.124 171.134V156.478C153.124 155.935 153.615 155.491 154.213 155.491Z" fill="#FEC12F"/>
<path d="M149.525 222.742C150.153 226.038 150.49 217.145 150.49 220.78C150.49 224.873 150.057 236.116 149.268 239.767H244.678V222.742H149.525Z" fill="#F7F8FC"/>
<path opacity="0.2" d="M149.525 222.742C149.669 223.502 149.798 224.272 149.911 225.051H235.97V222.742H149.525Z" fill="#2E95D1"/>
<path d="M248.491 219.279H148.496C147.894 219.279 147.407 219.723 147.407 220.269V222.742H193.321V239.767H147.407V242.24C147.407 242.786 147.894 243.23 148.496 243.23H248.491C249.094 243.23 249.581 242.786 249.581 242.24V220.271C249.581 219.723 249.094 219.279 248.491 219.279Z" fill="#FF3D0D"/>
<path d="M273.173 219.279H195.862C196.464 219.279 196.949 219.723 196.949 220.269V242.238C196.949 242.784 196.464 243.229 195.862 243.229H273.173C273.775 243.229 274.262 242.784 274.262 242.238V220.269C274.262 219.723 273.775 219.279 273.173 219.279Z" fill="#FF3D0D"/>
<path d="M273.173 219.279H195.862C196.464 219.279 196.949 219.723 196.949 220.269V223.568H274.261V220.269C274.262 219.723 273.775 219.279 273.173 219.279Z" fill="#C9300A"/>
<path d="M264.092 199.513L259.392 196.583L254.692 199.513V184.826H259.392H264.092V199.513Z" fill="#FF3D0D"/>
<path d="M22.4595 182.708L79.1863 243.301L154.112 125.48L97.3832 64.8885L22.4595 182.708Z" fill="#06497D"/>
<path d="M23.0677 181.823L79.7977 242.414L154.723 124.593L97.9963 64L23.0677 181.823Z" fill="#136FB7"/>
<path d="M90.149 225.671L78.2313 242.969L92.5352 254L97.9108 251.654L90.149 225.671Z" fill="#021E4C"/>
<path d="M90.7621 224.784L78.8395 242.082L93.2902 253.373L105.823 235.191L90.7621 224.784Z" fill="#06497D"/>
<path d="M154.768 124.306L147.319 135.112L150.945 138.392L158.756 127.06L154.768 124.306Z" fill="#06497D"/>
<path d="M91.5154 252.152L164.555 222.077L239.737 103.884L229.495 108.186L91.5154 252.152Z" fill="#06497D"/>
<path d="M91.5154 252.152L93.4337 253.593L166.473 223.516L164.555 222.077L91.5154 252.152Z" fill="#021E4C"/>
<path d="M164.555 222.077L166.473 223.516L241.655 105.326L239.737 103.884L164.555 222.077Z" fill="#136FB7"/>
<path d="M80.419 240.046L150.093 210.782L222.025 97.5403L152.348 126.803L80.419 240.046Z" fill="#F7F8FC"/>
<path d="M27.0366 178.998L81.0029 239.875L152.936 126.632L98.9659 65.7559L27.0366 178.998Z" fill="url(#paint0_linear_378_2)"/>
<path d="M80.419 240.046L93.45 249.852L163.122 220.587L150.093 210.782L80.419 240.046Z" fill="#97D3F1"/>
<path d="M150.093 210.782L163.122 220.587L235.051 107.346L222.025 97.5403L150.093 210.782Z" fill="#CFEAF9"/>
<path d="M144.691 152.387C144.691 152.387 140.913 155.366 141.712 151.727C142.509 148.086 143.317 142.81 144.135 142.816C144.95 142.823 148.65 146.008 144.691 152.387Z" fill="#212A54"/>
<path d="M146.04 151.312C146.04 151.312 140.163 152.19 138.565 152.594C136.968 152.996 136.473 155.234 132.335 158.847C128.196 162.461 126.075 164.821 125.875 166.306C125.675 167.792 125.252 169.869 122.947 169.535C120.638 169.199 116.68 168.091 114.927 167.808C113.171 167.527 113.588 166.674 113.588 166.674C113.588 166.674 115.882 166.005 117.176 165.85C118.473 165.697 120.42 165.719 121.411 164.7C122.4 163.679 126.225 158.7 127.698 155.552C129.173 152.404 133.277 147.394 134.737 146.7C136.197 146.007 142.086 143.286 148.557 143.747C155.026 144.21 147.728 151.14 146.04 151.312Z" fill="#EC9568"/>
<path d="M156.616 151.948C156.616 151.948 142.086 153.536 142.812 153.395C143.133 153.334 145.177 149.685 144.161 146.556C143.401 144.214 144.369 143.844 143.617 143.548C142.867 143.252 153.595 140.001 153.595 140.001C153.595 140.001 158.286 146.2 156.616 151.948Z" fill="#0063CB"/>
<path d="M200.905 136.284L206.965 136.983C206.965 136.983 205.882 138.385 202.665 137.681C199.448 136.98 198.945 136.986 198.945 136.986L200.905 136.284Z" fill="#EC9568"/>
<path d="M199.79 136.289L205.842 138.214C205.842 138.214 204.359 139.128 202.748 138.526C201.134 137.923 197.958 137.392 197.958 137.392L199.79 136.289Z" fill="#EC9568"/>
<path d="M165.426 111.575C165.426 111.575 162.741 104.331 161.665 102.884C160.712 101.601 155.469 102.262 152.934 100.538C152.934 100.538 152.798 99.6628 152.676 98.3108C152.592 97.3755 152.584 96.2511 152.452 95.752C152.124 94.5308 152.069 95.9668 152.122 96.3804C152.163 96.7083 151.618 94.3046 151.463 94.1786C151.006 93.8054 151.121 95.1818 151.03 95.3821C150.841 95.8085 150.804 93.1286 150.804 93.1286C149.925 93.3596 150.09 94.8312 150.348 97.8423C150.52 99.8858 150.307 102.078 149.643 101.269C148.978 100.461 148.205 100.013 147.897 100.131C147.589 100.251 148.489 101.677 149.302 102.499C150.112 103.322 151.004 104.078 152.661 104.611C154.317 105.142 156.025 105.903 156.57 106.402C157.117 106.901 159.645 116.07 159.645 116.07L165.426 111.575Z" fill="#F7B68B"/>
<path d="M186.671 122.264C186.671 122.264 184.283 136.158 182.192 132.462C180.099 128.762 183.142 123.407 186.671 122.264Z" fill="#DD000B"/>
<path d="M184.989 123.511L193.779 123.995C193.779 123.995 196.865 122.806 197.385 127.391C197.907 131.979 198.913 136.166 198.913 136.166C198.913 136.166 195.918 137.957 195.087 135.796C194.256 133.634 192.38 130.03 192.398 129.066C192.417 128.102 181.329 131.41 181.329 131.41C181.329 131.41 180.251 125.654 184.989 123.511Z" fill="#F7B68B"/>
<path d="M177.534 134.536C177.534 134.536 181.635 131.845 182.613 132.993C183.097 133.562 180.893 130.549 183 127.184C185.109 123.819 186.671 122.262 186.671 122.262L179.246 121.466C179.246 121.466 173.92 125.856 177.534 134.536Z" fill="#FD2227"/>
<path d="M169.324 115.818C169.324 115.818 165.576 111.589 165.499 110.838C165.424 110.087 157.443 115.038 157.443 115.038L160.034 122.8L169.324 115.818Z" fill="#FD2227"/>
<path d="M179.246 121.466C179.246 121.466 178.626 121.404 178.31 121.338C175.064 120.673 174.409 118.272 170.03 116.183C169.734 116.041 168.911 115.481 168.911 115.481L160.255 121.257C160.255 121.257 157.417 126.037 156.975 130.606C156.533 135.172 154.628 137.335 153.266 139.445C152.051 141.328 151.69 141.467 154.439 143C157.187 144.53 164.514 140.929 167.572 144.645C170.627 148.363 171.629 151.063 170.76 153.134C169.892 155.206 179.702 143.593 177.86 134.269C176.013 124.944 178.947 122.256 179.246 121.466Z" fill="#DD000B"/>
<path d="M198.253 134.912C198.253 134.912 203.974 135.079 206.136 134.618C208.296 134.159 204.071 135.81 203.719 136.001C203.366 136.19 199.798 136.791 198.942 137.602C198.083 138.409 198.066 139.745 198.472 140.732C198.877 141.721 198.077 143.093 197.106 141.047C196.133 139.002 196.657 138.773 196.109 138.107C195.56 137.44 194.878 135.868 195.613 135.159C196.349 134.449 198.253 134.912 198.253 134.912Z" fill="#F7B68B"/>
<path d="M142.542 147.179C142.542 147.179 142.191 143.126 142.166 141.286C142.118 137.77 141.924 137.582 142.809 136.385C143.578 135.345 144.136 134.723 144.464 136.547C144.862 138.762 144.549 140.849 146.289 138.398C148.008 135.977 143.201 147.858 142.542 147.179Z" fill="#F7B68B"/>
<path d="M165.852 136.301C165.852 136.301 166.21 132.62 164.786 133.521C163.193 134.533 158.147 136.148 156.738 136.904C155.326 137.66 152.522 139.023 153.77 140.705C155.017 142.388 165.852 136.301 165.852 136.301Z" fill="#212A54"/>
<path d="M166.542 140.309C166.542 140.309 164.377 128.165 162.904 126.126C161.431 124.089 160.021 123.113 157.753 124.679C155.488 126.244 145.534 138.716 144.011 141.802C142.486 144.887 141.361 147.901 143.289 148.089C144.062 148.163 146.537 145.616 147.789 144.178C149.043 142.737 155.791 136.867 156.438 134.812C156.438 134.812 154.989 140.582 157.501 146.848C160.01 153.114 167.389 143.068 166.542 140.309Z" fill="#F7B68B"/>
<path d="M165.679 133.701C165.679 133.701 164.098 139.106 153.428 139.631C153.428 139.631 153.373 140.592 154.237 145.474C155.099 150.352 155.589 153.912 158.844 155.398C162.098 156.886 167.636 155.434 170.91 152.334C172.565 150.766 169.448 145.945 169.448 145.945L168.038 142.128C168.038 142.128 165.931 135.119 165.679 133.701Z" fill="#387BFF"/>
<path d="M175.769 110.794C175.769 110.794 183.245 114.836 186.243 114.762C189.241 114.688 186.096 111.962 188.34 108.872C190.583 105.782 195.125 96.8747 189.754 99.763C184.383 102.653 185.194 106.147 186.874 104C188.552 101.852 194.502 97.3399 188.055 92.9784C181.608 88.6168 176.452 90.8961 180.075 96.7681C183.702 102.64 178.173 86.7058 175.293 90.9414C172.413 95.1769 176.382 97.5095 177.658 98.4239C178.933 99.3382 175.075 91.552 172.457 96.3384C169.839 101.125 172.057 105.808 175.769 110.794Z" fill="#212A54"/>
<path d="M179.115 114.007C179.115 114.007 175.684 118.138 175.955 120.377C176.035 121.038 175.987 121.75 175.826 122.437C174.982 126.029 167.919 118.632 169.982 117.269C171.424 116.316 172.717 115.093 172.754 113.345C172.843 109.09 179.115 114.007 179.115 114.007Z" fill="#F7B68B"/>
<path d="M179.794 114.607C179.794 114.607 177.715 114.936 175.471 120.74C175.468 120.745 171.72 119.758 171.55 116.314C172.202 115.647 172.726 114.726 172.755 113.345C172.843 109.09 179.794 114.607 179.794 114.607Z" fill="#EC9568"/>
<path d="M178.399 98.3059C178.399 98.3059 174.937 100.563 171.939 106.016C168.945 111.468 170.389 114.655 175.135 116.855C179.882 119.056 183.952 114.427 184.717 113.122C185.482 111.817 188.774 115.503 189.833 112.03C190.891 108.557 188.413 108.47 187.445 109.46C186.475 110.45 184.757 111.391 184.481 109.866C184.207 108.341 189.012 105.118 186.5 104.422C183.984 103.727 179.791 102.243 178.399 98.3059Z" fill="#F7B68B"/>
<path d="M173.636 117.395C173.636 117.395 169.535 113.356 167.612 113.192C165.691 113.024 166.741 117.962 168.253 118.287C169.766 118.611 171.499 118.762 173.636 117.395Z" fill="white"/>
<defs>
<linearGradient id="paint0_linear_378_2" x1="119.11" y1="163.223" x2="67.7109" y2="144.902" gradientUnits="userSpaceOnUse">
<stop stop-color="#CFEAF9"/>
<stop offset="1" stop-color="#E5E8EC"/>
</linearGradient>
</defs>
</svg>
