<svg width="28" height="28" viewBox="0 0 28 28" fill="none" xmlns="http://www.w3.org/2000/svg">
<path d="M4.375 2.625V25.375H14.1504L15.7688 23.7549C15.7574 23.712 15.7502 23.6679 15.7415 23.625H6.125V4.375H18.375V11.375L20.125 13.125H21.875L23.625 11.375V2.625H4.375ZM20.125 4.375H21.875V10.6504L21 11.5254L20.125 10.6504V4.375ZM21 14.8767C20.6096 14.8767 20.2196 14.9956 19.8892 15.2339L19.1851 15.7432L18.3289 15.8816C17.5251 16.0121 16.8859 16.6493 16.7566 17.4556L16.6182 18.3101L16.1089 19.0142C15.6323 19.675 15.6333 20.5749 16.1089 21.2358V21.2375L16.6182 21.9417L16.7566 22.7979C16.8567 23.4147 17.2563 23.9323 17.8008 24.1992L15.75 26.25H17.5V28L20.2754 25.2246C20.7394 25.4158 21.2605 25.4156 21.7246 25.2246L24.5 28V26.25H26.25L24.1992 24.1992C24.7442 23.9326 25.1458 23.4158 25.2451 22.7961L25.3835 21.9417L25.8911 21.2375C26.3677 20.5767 26.3667 19.6751 25.8911 19.0142L25.3835 18.3101L25.2451 17.4539C25.1147 16.6501 24.4774 16.0109 23.6711 15.8816L22.8167 15.7432L22.1125 15.2339H22.1108C21.7804 14.9961 21.3904 14.8767 21 14.8767ZM21 16.6233C21.0301 16.6232 21.0606 16.6337 21.0889 16.6541L22.1279 17.4043L23.3926 17.6094H23.3943C23.4613 17.6201 23.506 17.6646 23.5173 17.7341L23.7224 18.9988L24.4709 20.0361C24.5116 20.0927 24.5122 20.1589 24.4727 20.2139L23.7224 21.2529L23.5173 22.5176V22.5193C23.5066 22.5863 23.4621 22.631 23.3926 22.6423L22.1279 22.8474L21.0889 23.5977V23.5959C21.0323 23.6366 20.9678 23.6372 20.9128 23.5977L19.8738 22.8474L18.6074 22.6423C18.5404 22.6316 18.4957 22.5871 18.4844 22.5176L18.2793 21.2529L17.5291 20.2139C17.4884 20.1573 17.4894 20.0928 17.5291 20.0378L18.2793 18.9988L18.4844 17.7324C18.4951 17.6654 18.5396 17.6207 18.6091 17.6094L19.8738 17.4043L20.9128 16.6541C20.9403 16.6342 20.9699 16.6234 21 16.6233Z" fill="white"/>
</svg>
