<svg width="26" height="26" viewBox="0 0 26 26" fill="none" xmlns="http://www.w3.org/2000/svg">
<path d="M6.5 0C2.925 0 0 2.925 0 6.5C0 10.075 2.925 13 6.5 13C10.075 13 13 10.075 13 6.5C13 2.925 10.075 0 6.5 0ZM6.5 2.16667C8.88333 2.16667 10.8333 4.11667 10.8333 6.5C10.8333 8.88333 8.88333 10.8333 6.5 10.8333C4.11667 10.8333 2.16667 8.88333 2.16667 6.5C2.16667 4.11667 4.11667 2.16667 6.5 2.16667ZM17.3333 2.16667V4.33333H14.8831C15.0619 5.02667 15.1667 5.75033 15.1667 6.5C15.1667 7.6505 14.9371 8.74575 14.5298 9.75H20.5833L20.5854 21.6667H5.41667V15.0926C4.65942 14.9984 3.93358 14.8071 3.25 14.5298V21.6667C3.25 22.8638 4.21958 23.8333 5.41667 23.8333H20.5833C21.7804 23.8333 22.75 22.8638 22.75 21.6667V4.33333H19.5V2.16667H17.3333ZM7.47542 3.46582L5.63249 6.60791L8.01709 8.99251L8.99251 7.90918L7.36751 6.39209L8.66667 4.11751L7.47542 3.46582Z" fill="white"/>
</svg>
