<svg width="26" height="26" viewBox="0 0 26 26" fill="none" xmlns="http://www.w3.org/2000/svg">
<path d="M13 0C5.83313 0 0 5.83313 0 13C0 20.1669 5.83313 26 13 26C20.1669 26 26 20.1669 26 13C26 5.83313 20.1669 0 13 0ZM13 2.16667C18.9959 2.16667 23.8333 7.00408 23.8333 13C23.8333 18.9959 18.9959 23.8333 13 23.8333C7.00408 23.8333 2.16667 18.9959 2.16667 13C2.16667 7.00408 7.00408 2.16667 13 2.16667ZM8.34717 7.58333L5.41667 16.8573V18.4167H7.58333V17.1916L7.88167 16.25H10.535L10.8333 17.1916V18.4167H13V16.8573L10.0695 7.58333H8.34717ZM16.25 9.75V11.9167H14.0833V14.0833H16.25V16.25H18.4167V14.0833H20.5833V11.9167H18.4167V9.75H16.25ZM9.20833 12.0479L9.85156 14.0833H8.5651L9.20833 12.0479Z" fill="white"/>
</svg>
