<svg width="54" height="54" viewBox="0 0 54 54" fill="none" xmlns="http://www.w3.org/2000/svg">
<path d="M27 51.9749C13.2286 51.9749 2.02499 40.7713 2.02499 26.9999C2.02499 13.2286 13.2286 2.0249 27 2.0249C40.7713 2.0249 51.975 13.2286 51.975 26.9999C51.975 40.7713 40.7713 51.9749 27 51.9749Z" fill="#F8F8F8"/>
<path d="M27 2.7001C40.3988 2.7001 51.3 13.6013 51.3 27.0001C51.3 40.3988 40.3988 51.3001 27 51.3001C13.6013 51.3001 2.70001 40.3988 2.70001 27.0001C2.70001 13.6013 13.6013 2.7001 27 2.7001ZM27 1.3501C12.8345 1.3501 1.35001 12.8345 1.35001 27.0001C1.35001 41.1656 12.8345 52.6501 27 52.6501C41.1656 52.6501 52.65 41.1656 52.65 27.0001C52.65 12.8345 41.1656 1.3501 27 1.3501Z" fill="#978EF3"/>
<path d="M14.85 27L22.95 35.1L40.5 17.55" stroke="#7367F0" stroke-width="2"/>
</svg>
