<svg width="26" height="26" viewBox="0 0 26 26" fill="none" xmlns="http://www.w3.org/2000/svg">
<path d="M5.41663 2.16666C4.84199 2.16666 4.29089 2.39494 3.88456 2.80127C3.47823 3.20759 3.24996 3.7587 3.24996 4.33333C3.24996 4.90797 3.47823 5.45907 3.88456 5.8654C4.29089 6.27172 4.84199 6.5 5.41663 6.5C5.99126 6.5 6.54236 6.27172 6.94869 5.8654C7.35502 5.45907 7.58329 4.90797 7.58329 4.33333C7.58329 3.7587 7.35502 3.20759 6.94869 2.80127C6.54236 2.39494 5.99126 2.16666 5.41663 2.16666ZM9.74996 3.25V5.41666H20.5833V15.1667H18.4166V13H14.0833V15.1667H10.8333V17.3333H23.8333V15.1667H22.75V3.25H9.74996ZM2.16663 7.58333V17.3333V23.8333H4.33329V17.3333H6.49996V23.8333H8.66663V17.3333V9.75H15.1666V7.58333H2.16663Z" fill="white"/>
</svg>
